solid OpenSCAD_Model
  facet normal -1 0 0
    outer loop
      vertex -32.65 -11.9 -10
      vertex -32.65 -11.9 10
      vertex -32.65 -10.4 -10
    endloop
  endfacet
  facet normal -1 0 0
    outer loop
      vertex -32.65 -10.4 -10
      vertex -32.65 -11.9 10
      vertex -32.65 -10.4 10
    endloop
  endfacet
  facet normal 0 -1 0
    outer loop
      vertex -23.095 -11.9 -1.94986
      vertex -32.65 -11.9 -10
      vertex -11.15 -11.9 -10
    endloop
  endfacet
  facet normal 0 -1 0
    outer loop
      vertex -32.65 -11.9 10
      vertex -32.65 -11.9 -10
      vertex -24.4519 -11.9 -0.867767
    endloop
  endfacet
  facet normal 0 -1 0
    outer loop
      vertex -32.65 -11.9 10
      vertex -24.4519 -11.9 -0.867767
      vertex -24.4519 -11.9 0.867767
    endloop
  endfacet
  facet normal 0 -1 0
    outer loop
      vertex -11.15 -11.9 10
      vertex -32.65 -11.9 10
      vertex -23.095 -11.9 1.94986
    endloop
  endfacet
  facet normal 0 -1 0
    outer loop
      vertex -11.15 -11.9 10
      vertex -21.403 -11.9 1.56366
      vertex -11.15 -11.9 -10
    endloop
  endfacet
  facet normal 0 -1 0
    outer loop
      vertex -11.15 -11.9 10
      vertex -23.095 -11.9 1.94986
      vertex -21.403 -11.9 1.56366
    endloop
  endfacet
  facet normal 0 -1 0
    outer loop
      vertex -21.403 -11.9 1.56366
      vertex -20.65 -11.9 2.64233e-015
      vertex -11.15 -11.9 -10
    endloop
  endfacet
  facet normal 0 -1 0
    outer loop
      vertex -20.65 -11.9 2.64233e-015
      vertex -21.403 -11.9 -1.56366
      vertex -11.15 -11.9 -10
    endloop
  endfacet
  facet normal 0 -1 0
    outer loop
      vertex -21.403 -11.9 -1.56366
      vertex -23.095 -11.9 -1.94986
      vertex -11.15 -11.9 -10
    endloop
  endfacet
  facet normal 0 -1 0
    outer loop
      vertex -24.4519 -11.9 -0.867767
      vertex -32.65 -11.9 -10
      vertex -23.095 -11.9 -1.94986
    endloop
  endfacet
  facet normal 0 -1 0
    outer loop
      vertex -24.4519 -11.9 0.867767
      vertex -23.095 -11.9 1.94986
      vertex -32.65 -11.9 10
    endloop
  endfacet
  facet normal 0 0 -1
    outer loop
      vertex -32.65 -11.9 -10
      vertex -32.65 -10.4 -10
      vertex -11.15 -11.9 -10
    endloop
  endfacet
  facet normal 0 0 -1
    outer loop
      vertex -11.15 -11.9 -10
      vertex -32.65 -10.4 -10
      vertex -12.65 -10.4 -10
    endloop
  endfacet
  facet normal 0 0 -1
    outer loop
      vertex -11.15 -11.9 -10
      vertex -12.65 -10.4 -10
      vertex -12.65 -0.75 -10
    endloop
  endfacet
  facet normal 0 0 -1
    outer loop
      vertex -11.15 -11.9 -10
      vertex -12.65 -0.75 -10
      vertex -12.5712 -0.75 -10
    endloop
  endfacet
  facet normal 0 0 -1
    outer loop
      vertex -11.15 -11.9 -10
      vertex -12.5712 -0.75 -10
      vertex -12.65 0 -10
    endloop
  endfacet
  facet normal 0 0 -1
    outer loop
      vertex -11.15 -11.9 -10
      vertex -12.65 0 -10
      vertex -12.3736 2.63008 -10
    endloop
  endfacet
  facet normal 0 0 -1
    outer loop
      vertex -11.15 -11.9 -10
      vertex -12.3736 2.63008 -10
      vertex -11.5564 5.14522 -10
    endloop
  endfacet
  facet normal 0 0 -1
    outer loop
      vertex -10.9063 2.31821 -10
      vertex -11.5564 5.14522 -10
      vertex -10.2341 7.43548 -10
    endloop
  endfacet
  facet normal 0 0 -1
    outer loop
      vertex -9.02054 6.55381 -10
      vertex -10.2341 7.43548 -10
      vertex -8.4645 9.40078 -10
    endloop
  endfacet
  facet normal 0 0 -1
    outer loop
      vertex -7.46081 8.28606 -10
      vertex -8.4645 9.40078 -10
      vertex -6.325 10.9552 -10
    endloop
  endfacet
  facet normal 0 0 -1
    outer loop
      vertex -5.575 9.65618 -10
      vertex -6.325 10.9552 -10
      vertex -3.90907 12.0309 -10
    endloop
  endfacet
  facet normal 0 0 -1
    outer loop
      vertex -3.44554 10.6043 -10
      vertex -3.90907 12.0309 -10
      vertex -1.32228 12.5807 -10
    endloop
  endfacet
  facet normal 0 0 -1
    outer loop
      vertex -1.16549 11.0889 -10
      vertex -1.32228 12.5807 -10
      vertex 1.32228 12.5807 -10
    endloop
  endfacet
  facet normal 0 0 -1
    outer loop
      vertex 1.16549 11.0889 -10
      vertex 1.32228 12.5807 -10
      vertex 3.90907 12.0309 -10
    endloop
  endfacet
  facet normal 0 0 -1
    outer loop
      vertex 3.44554 10.6043 -10
      vertex 3.90907 12.0309 -10
      vertex 6.325 10.9552 -10
    endloop
  endfacet
  facet normal 0 0 -1
    outer loop
      vertex 5.575 9.65618 -10
      vertex 6.325 10.9552 -10
      vertex 8.4645 9.40078 -10
    endloop
  endfacet
  facet normal 0 0 -1
    outer loop
      vertex 9.02054 6.55381 -10
      vertex 8.4645 9.40078 -10
      vertex 10.2341 7.43548 -10
    endloop
  endfacet
  facet normal 0 0 -1
    outer loop
      vertex 10.186 4.53511 -10
      vertex 10.2341 7.43548 -10
      vertex 11.5564 5.14522 -10
    endloop
  endfacet
  facet normal 0 0 -1
    outer loop
      vertex 10.9063 2.31821 -10
      vertex 11.5564 5.14522 -10
      vertex 12.3736 2.63008 -10
    endloop
  endfacet
  facet normal 0 0 -1
    outer loop
      vertex 11.15 -8.88178e-016 -10
      vertex 12.3736 2.63008 -10
      vertex 12.65 0 -10
    endloop
  endfacet
  facet normal 0 0 -1
    outer loop
      vertex 11.15 -11.9 -10
      vertex 32.65 -10.4 -10
      vertex 32.65 -11.9 -10
    endloop
  endfacet
  facet normal 0 0 -1
    outer loop
      vertex 10.9063 2.31821 -10
      vertex 12.3736 2.63008 -10
      vertex 11.15 0 -10
    endloop
  endfacet
  facet normal 0 0 -1
    outer loop
      vertex 11.15 0 -10
      vertex 12.3736 2.63008 -10
      vertex 11.15 -8.88178e-016 -10
    endloop
  endfacet
  facet normal 0 0 -1
    outer loop
      vertex 10.186 4.53511 -10
      vertex 11.5564 5.14522 -10
      vertex 10.9063 2.31821 -10
    endloop
  endfacet
  facet normal 0 0 -1
    outer loop
      vertex 9.02054 6.55381 -10
      vertex 10.2341 7.43548 -10
      vertex 10.186 4.53511 -10
    endloop
  endfacet
  facet normal 0 0 -1
    outer loop
      vertex 7.46081 8.28606 -10
      vertex 8.4645 9.40078 -10
      vertex 9.02054 6.55381 -10
    endloop
  endfacet
  facet normal 0 0 -1
    outer loop
      vertex 5.575 9.65618 -10
      vertex 8.4645 9.40078 -10
      vertex 7.46081 8.28606 -10
    endloop
  endfacet
  facet normal 0 0 -1
    outer loop
      vertex 3.44554 10.6043 -10
      vertex 6.325 10.9552 -10
      vertex 5.575 9.65618 -10
    endloop
  endfacet
  facet normal 0 0 -1
    outer loop
      vertex 1.16549 11.0889 -10
      vertex 3.90907 12.0309 -10
      vertex 3.44554 10.6043 -10
    endloop
  endfacet
  facet normal 0 0 -1
    outer loop
      vertex -1.16549 11.0889 -10
      vertex 1.32228 12.5807 -10
      vertex 1.16549 11.0889 -10
    endloop
  endfacet
  facet normal 0 0 -1
    outer loop
      vertex -3.44554 10.6043 -10
      vertex -1.32228 12.5807 -10
      vertex -1.16549 11.0889 -10
    endloop
  endfacet
  facet normal 0 0 -1
    outer loop
      vertex -5.575 9.65618 -10
      vertex -3.90907 12.0309 -10
      vertex -3.44554 10.6043 -10
    endloop
  endfacet
  facet normal 0 0 -1
    outer loop
      vertex -7.46081 8.28606 -10
      vertex -6.325 10.9552 -10
      vertex -5.575 9.65618 -10
    endloop
  endfacet
  facet normal 0 0 -1
    outer loop
      vertex -9.02054 6.55381 -10
      vertex -8.4645 9.40078 -10
      vertex -7.46081 8.28606 -10
    endloop
  endfacet
  facet normal 0 0 -1
    outer loop
      vertex -10.186 4.53511 -10
      vertex -10.2341 7.43548 -10
      vertex -9.02054 6.55381 -10
    endloop
  endfacet
  facet normal 0 0 -1
    outer loop
      vertex -10.9063 2.31821 -10
      vertex -10.2341 7.43548 -10
      vertex -10.186 4.53511 -10
    endloop
  endfacet
  facet normal 0 0 -1
    outer loop
      vertex -11.15 0 -10
      vertex -11.5564 5.14522 -10
      vertex -10.9063 2.31821 -10
    endloop
  endfacet
  facet normal 0 0 -1
    outer loop
      vertex -11.15 -11.9 -10
      vertex -11.5564 5.14522 -10
      vertex -11.15 -8.88178e-016 -10
    endloop
  endfacet
  facet normal 0 0 -1
    outer loop
      vertex -11.5564 5.14522 -10
      vertex -11.15 0 -10
      vertex -11.15 -8.88178e-016 -10
    endloop
  endfacet
  facet normal 0 0 -1
    outer loop
      vertex 11.15 -8.88178e-016 -10
      vertex 12.65 0 -10
      vertex 12.5712 -0.75 -10
    endloop
  endfacet
  facet normal 0 0 -1
    outer loop
      vertex 12.5712 -0.75 -10
      vertex 12.65 -0.75 -10
      vertex 12.65 -10.4 -10
    endloop
  endfacet
  facet normal 0 0 -1
    outer loop
      vertex 11.15 -8.88178e-016 -10
      vertex 12.5712 -0.75 -10
      vertex 12.65 -10.4 -10
    endloop
  endfacet
  facet normal 0 0 -1
    outer loop
      vertex 12.65 -10.4 -10
      vertex 32.65 -10.4 -10
      vertex 11.15 -11.9 -10
    endloop
  endfacet
  facet normal 0 0 -1
    outer loop
      vertex 11.15 -8.88178e-016 -10
      vertex 12.65 -10.4 -10
      vertex 11.15 -11.9 -10
    endloop
  endfacet
  facet normal 0 1 0
    outer loop
      vertex -21.403 -10.4 1.56366
      vertex -32.65 -10.4 10
      vertex -12.65 -10.4 10
    endloop
  endfacet
  facet normal 0 1 0
    outer loop
      vertex -32.65 -10.4 -10
      vertex -32.65 -10.4 10
      vertex -24.4519 -10.4 0.867767
    endloop
  endfacet
  facet normal 0 1 0
    outer loop
      vertex -32.65 -10.4 -10
      vertex -24.4519 -10.4 0.867767
      vertex -24.4519 -10.4 -0.867767
    endloop
  endfacet
  facet normal 0 1 0
    outer loop
      vertex -32.65 -10.4 -10
      vertex -24.4519 -10.4 -0.867767
      vertex -23.095 -10.4 -1.94986
    endloop
  endfacet
  facet normal 0 1 0
    outer loop
      vertex -32.65 -10.4 -10
      vertex -23.095 -10.4 -1.94986
      vertex -12.65 -10.4 -10
    endloop
  endfacet
  facet normal 0 1 0
    outer loop
      vertex -21.403 -10.4 -1.56366
      vertex -12.65 -10.4 -10
      vertex -23.095 -10.4 -1.94986
    endloop
  endfacet
  facet normal 0 1 0
    outer loop
      vertex -20.65 -10.4 2.30926e-015
      vertex -12.65 -10.4 -10
      vertex -21.403 -10.4 -1.56366
    endloop
  endfacet
  facet normal 0 1 0
    outer loop
      vertex -12.65 -10.4 -10
      vertex -20.65 -10.4 2.30926e-015
      vertex -12.65 -10.4 10
    endloop
  endfacet
  facet normal 0 1 0
    outer loop
      vertex -20.65 -10.4 2.30926e-015
      vertex -21.403 -10.4 1.56366
      vertex -12.65 -10.4 10
    endloop
  endfacet
  facet normal 0 1 0
    outer loop
      vertex -23.095 -10.4 1.94986
      vertex -32.65 -10.4 10
      vertex -21.403 -10.4 1.56366
    endloop
  endfacet
  facet normal 0 1 0
    outer loop
      vertex -24.4519 -10.4 0.867767
      vertex -32.65 -10.4 10
      vertex -23.095 -10.4 1.94986
    endloop
  endfacet
  facet normal 0 0 1
    outer loop
      vertex -32.65 -10.4 10
      vertex -32.65 -11.9 10
      vertex -11.15 -11.9 10
    endloop
  endfacet
  facet normal 0 0 1
    outer loop
      vertex -12.65 -10.4 10
      vertex -32.65 -10.4 10
      vertex -11.15 -11.9 10
    endloop
  endfacet
  facet normal 0 0 1
    outer loop
      vertex -12.3736 2.63008 10
      vertex -12.65 0 10
      vertex -10.9063 2.31821 10
    endloop
  endfacet
  facet normal 0 0 1
    outer loop
      vertex -12.65 0 10
      vertex -11.15 -8.88178e-016 10
      vertex -11.15 0 10
    endloop
  endfacet
  facet normal 0 0 1
    outer loop
      vertex -11.5564 5.14522 10
      vertex -10.186 4.53511 10
      vertex -9.02054 6.55381 10
    endloop
  endfacet
  facet normal 0 0 1
    outer loop
      vertex -3.90907 12.0309 10
      vertex -7.46081 8.28606 10
      vertex -5.575 9.65618 10
    endloop
  endfacet
  facet normal 0 0 1
    outer loop
      vertex -1.32228 12.5807 10
      vertex -5.575 9.65618 10
      vertex -3.44554 10.6043 10
    endloop
  endfacet
  facet normal 0 0 1
    outer loop
      vertex 1.32228 12.5807 10
      vertex -3.44554 10.6043 10
      vertex -1.16549 11.0889 10
    endloop
  endfacet
  facet normal 0 0 1
    outer loop
      vertex 3.90907 12.0309 10
      vertex -1.16549 11.0889 10
      vertex 1.16549 11.0889 10
    endloop
  endfacet
  facet normal 0 0 1
    outer loop
      vertex 6.325 10.9552 10
      vertex 1.16549 11.0889 10
      vertex 3.44554 10.6043 10
    endloop
  endfacet
  facet normal 0 0 1
    outer loop
      vertex 8.4645 9.40078 10
      vertex 3.44554 10.6043 10
      vertex 5.575 9.65618 10
    endloop
  endfacet
  facet normal 0 0 1
    outer loop
      vertex 10.2341 7.43548 10
      vertex 5.575 9.65618 10
      vertex 7.46081 8.28606 10
    endloop
  endfacet
  facet normal 0 0 1
    outer loop
      vertex 12.3736 2.63008 10
      vertex 10.186 4.53511 10
      vertex 10.9063 2.31821 10
    endloop
  endfacet
  facet normal 0 0 1
    outer loop
      vertex 11.5564 5.14522 10
      vertex 10.2341 7.43548 10
      vertex 7.46081 8.28606 10
    endloop
  endfacet
  facet normal 0 0 1
    outer loop
      vertex 12.5712 -0.75 10
      vertex 10.9063 2.31821 10
      vertex 11.15 0 10
    endloop
  endfacet
  facet normal 0 0 1
    outer loop
      vertex 12.65 -10.4 10
      vertex 11.15 -8.88178e-016 10
      vertex 11.15 -11.9 10
    endloop
  endfacet
  facet normal 0 0 1
    outer loop
      vertex 32.65 -11.9 10
      vertex 12.65 -10.4 10
      vertex 11.15 -11.9 10
    endloop
  endfacet
  facet normal 0 0 1
    outer loop
      vertex -10.2341 7.43548 10
      vertex -11.5564 5.14522 10
      vertex -7.46081 8.28606 10
    endloop
  endfacet
  facet normal 0 0 1
    outer loop
      vertex 12.5712 -0.75 10
      vertex 12.65 0 10
      vertex 10.9063 2.31821 10
    endloop
  endfacet
  facet normal 0 0 1
    outer loop
      vertex -12.65 0 10
      vertex -12.5712 -0.75 10
      vertex -11.15 -8.88178e-016 10
    endloop
  endfacet
  facet normal 0 0 1
    outer loop
      vertex -8.4645 9.40078 10
      vertex -10.2341 7.43548 10
      vertex -6.325 10.9552 10
    endloop
  endfacet
  facet normal 0 0 1
    outer loop
      vertex 8.4645 9.40078 10
      vertex 5.575 9.65618 10
      vertex 10.2341 7.43548 10
    endloop
  endfacet
  facet normal 0 0 1
    outer loop
      vertex 6.325 10.9552 10
      vertex 3.44554 10.6043 10
      vertex 8.4645 9.40078 10
    endloop
  endfacet
  facet normal 0 0 1
    outer loop
      vertex 3.90907 12.0309 10
      vertex 1.16549 11.0889 10
      vertex 6.325 10.9552 10
    endloop
  endfacet
  facet normal 0 0 1
    outer loop
      vertex 1.32228 12.5807 10
      vertex -1.16549 11.0889 10
      vertex 3.90907 12.0309 10
    endloop
  endfacet
  facet normal 0 0 1
    outer loop
      vertex -1.32228 12.5807 10
      vertex -3.44554 10.6043 10
      vertex 1.32228 12.5807 10
    endloop
  endfacet
  facet normal 0 0 1
    outer loop
      vertex -3.90907 12.0309 10
      vertex -5.575 9.65618 10
      vertex -1.32228 12.5807 10
    endloop
  endfacet
  facet normal 0 0 1
    outer loop
      vertex -11.5564 5.14522 10
      vertex -12.3736 2.63008 10
      vertex -10.186 4.53511 10
    endloop
  endfacet
  facet normal 0 0 1
    outer loop
      vertex -10.2341 7.43548 10
      vertex -7.46081 8.28606 10
      vertex -3.90907 12.0309 10
    endloop
  endfacet
  facet normal 0 0 1
    outer loop
      vertex -6.325 10.9552 10
      vertex -10.2341 7.43548 10
      vertex -3.90907 12.0309 10
    endloop
  endfacet
  facet normal 0 0 1
    outer loop
      vertex -7.46081 8.28606 10
      vertex -11.5564 5.14522 10
      vertex -9.02054 6.55381 10
    endloop
  endfacet
  facet normal 0 0 1
    outer loop
      vertex -10.186 4.53511 10
      vertex -12.3736 2.63008 10
      vertex -10.9063 2.31821 10
    endloop
  endfacet
  facet normal 0 0 1
    outer loop
      vertex -10.9063 2.31821 10
      vertex -12.65 0 10
      vertex -11.15 0 10
    endloop
  endfacet
  facet normal 0 0 1
    outer loop
      vertex -11.15 -8.88178e-016 10
      vertex -12.5712 -0.75 10
      vertex -11.15 -11.9 10
    endloop
  endfacet
  facet normal 0 0 1
    outer loop
      vertex -12.65 -0.75 10
      vertex -12.65 -10.4 10
      vertex -12.5712 -0.75 10
    endloop
  endfacet
  facet normal 0 0 1
    outer loop
      vertex -12.5712 -0.75 10
      vertex -12.65 -10.4 10
      vertex -11.15 -11.9 10
    endloop
  endfacet
  facet normal 0 0 1
    outer loop
      vertex 12.65 -10.4 10
      vertex 11.15 0 10
      vertex 11.15 -8.88178e-016 10
    endloop
  endfacet
  facet normal 0 0 1
    outer loop
      vertex 12.65 -10.4 10
      vertex 12.5712 -0.75 10
      vertex 11.15 0 10
    endloop
  endfacet
  facet normal 0 0 1
    outer loop
      vertex 12.65 -10.4 10
      vertex 12.65 -0.75 10
      vertex 12.5712 -0.75 10
    endloop
  endfacet
  facet normal 0 0 1
    outer loop
      vertex 12.65 0 10
      vertex 12.3736 2.63008 10
      vertex 10.9063 2.31821 10
    endloop
  endfacet
  facet normal 0 0 1
    outer loop
      vertex 12.3736 2.63008 10
      vertex 9.02054 6.55381 10
      vertex 10.186 4.53511 10
    endloop
  endfacet
  facet normal 0 0 1
    outer loop
      vertex 9.02054 6.55381 10
      vertex 11.5564 5.14522 10
      vertex 7.46081 8.28606 10
    endloop
  endfacet
  facet normal 0 0 1
    outer loop
      vertex 12.3736 2.63008 10
      vertex 11.5564 5.14522 10
      vertex 9.02054 6.55381 10
    endloop
  endfacet
  facet normal 0 0 1
    outer loop
      vertex 32.65 -10.4 10
      vertex 12.65 -10.4 10
      vertex 32.65 -11.9 10
    endloop
  endfacet
  facet normal 1 0 0
    outer loop
      vertex -11.15 -8.88178e-016 -10
      vertex -11.15 -8.88178e-016 10
      vertex -11.15 -11.9 10
    endloop
  endfacet
  facet normal 1 0 0
    outer loop
      vertex -11.15 -11.9 -10
      vertex -11.15 -8.88178e-016 -10
      vertex -11.15 -11.9 10
    endloop
  endfacet
  facet normal 1 0 0
    outer loop
      vertex -24.4519 -10.4 -0.867767
      vertex -24.4519 -10.4 0.867767
      vertex -24.4519 -11.9 0.867767
    endloop
  endfacet
  facet normal 1 0 0
    outer loop
      vertex -24.4519 -11.9 -0.867767
      vertex -24.4519 -10.4 -0.867767
      vertex -24.4519 -11.9 0.867767
    endloop
  endfacet
  facet normal 0.62349 1.73601e-016 0.781831
    outer loop
      vertex -23.095 -11.9 -1.94986
      vertex -23.095 -10.4 -1.94986
      vertex -24.4519 -10.4 -0.867767
    endloop
  endfacet
  facet normal 0.62349 1.73601e-016 0.781831
    outer loop
      vertex -24.4519 -11.9 -0.867767
      vertex -23.095 -11.9 -1.94986
      vertex -24.4519 -10.4 -0.867767
    endloop
  endfacet
  facet normal -0.222521 2.16477e-016 0.974928
    outer loop
      vertex -21.403 -11.9 -1.56366
      vertex -21.403 -10.4 -1.56366
      vertex -23.095 -10.4 -1.94986
    endloop
  endfacet
  facet normal -0.222521 2.16477e-016 0.974928
    outer loop
      vertex -23.095 -11.9 -1.94986
      vertex -21.403 -11.9 -1.56366
      vertex -23.095 -10.4 -1.94986
    endloop
  endfacet
  facet normal -0.900969 9.63415e-017 0.433884
    outer loop
      vertex -20.65 -10.4 2.30926e-015
      vertex -21.403 -10.4 -1.56366
      vertex -20.65 -11.9 2.64233e-015
    endloop
  endfacet
  facet normal -0.900969 9.63415e-017 0.433884
    outer loop
      vertex -20.65 -11.9 2.64233e-015
      vertex -21.403 -10.4 -1.56366
      vertex -21.403 -11.9 -1.56366
    endloop
  endfacet
  facet normal -0.900969 -9.63415e-017 -0.433884
    outer loop
      vertex -20.65 -10.4 2.30926e-015
      vertex -20.65 -11.9 2.64233e-015
      vertex -21.403 -10.4 1.56366
    endloop
  endfacet
  facet normal -0.900969 -9.63415e-017 -0.433884
    outer loop
      vertex -21.403 -10.4 1.56366
      vertex -20.65 -11.9 2.64233e-015
      vertex -21.403 -11.9 1.56366
    endloop
  endfacet
  facet normal -0.222521 -2.16477e-016 -0.974928
    outer loop
      vertex -21.403 -10.4 1.56366
      vertex -21.403 -11.9 1.56366
      vertex -23.095 -10.4 1.94986
    endloop
  endfacet
  facet normal -0.222521 -2.16477e-016 -0.974928
    outer loop
      vertex -23.095 -10.4 1.94986
      vertex -21.403 -11.9 1.56366
      vertex -23.095 -11.9 1.94986
    endloop
  endfacet
  facet normal 0.62349 -1.73601e-016 -0.781831
    outer loop
      vertex -23.095 -10.4 1.94986
      vertex -23.095 -11.9 1.94986
      vertex -24.4519 -10.4 0.867767
    endloop
  endfacet
  facet normal 0.62349 -1.73601e-016 -0.781831
    outer loop
      vertex -24.4519 -10.4 0.867767
      vertex -23.095 -11.9 1.94986
      vertex -24.4519 -11.9 0.867767
    endloop
  endfacet
  facet normal 0.994522 0.104528 0
    outer loop
      vertex -11.15 0 10
      vertex -11.15 -8.88178e-016 10
      vertex -11.15 -8.88178e-016 -10
    endloop
  endfacet
  facet normal 0.994522 0.104528 0
    outer loop
      vertex -11.15 0 -10
      vertex -11.15 0 10
      vertex -11.15 -8.88178e-016 -10
    endloop
  endfacet
  facet normal 0.994522 -0.104528 0
    outer loop
      vertex -10.9063 2.31821 -10
      vertex -10.9063 2.31821 10
      vertex -11.15 0 10
    endloop
  endfacet
  facet normal 0.994522 -0.104528 0
    outer loop
      vertex -11.15 0 -10
      vertex -10.9063 2.31821 -10
      vertex -11.15 0 10
    endloop
  endfacet
  facet normal 0.951057 -0.309017 0
    outer loop
      vertex -10.186 4.53511 -10
      vertex -10.186 4.53511 10
      vertex -10.9063 2.31821 10
    endloop
  endfacet
  facet normal 0.951057 -0.309017 0
    outer loop
      vertex -10.9063 2.31821 -10
      vertex -10.186 4.53511 -10
      vertex -10.9063 2.31821 10
    endloop
  endfacet
  facet normal 0.866025 -0.5 0
    outer loop
      vertex -9.02054 6.55381 -10
      vertex -9.02054 6.55381 10
      vertex -10.186 4.53511 10
    endloop
  endfacet
  facet normal 0.866025 -0.5 0
    outer loop
      vertex -10.186 4.53511 -10
      vertex -9.02054 6.55381 -10
      vertex -10.186 4.53511 10
    endloop
  endfacet
  facet normal 0.743145 -0.669131 0
    outer loop
      vertex -7.46081 8.28606 -10
      vertex -7.46081 8.28606 10
      vertex -9.02054 6.55381 10
    endloop
  endfacet
  facet normal 0.743145 -0.669131 0
    outer loop
      vertex -9.02054 6.55381 -10
      vertex -7.46081 8.28606 -10
      vertex -9.02054 6.55381 10
    endloop
  endfacet
  facet normal 0.587785 -0.809017 0
    outer loop
      vertex -5.575 9.65618 -10
      vertex -5.575 9.65618 10
      vertex -7.46081 8.28606 10
    endloop
  endfacet
  facet normal 0.587785 -0.809017 0
    outer loop
      vertex -7.46081 8.28606 -10
      vertex -5.575 9.65618 -10
      vertex -7.46081 8.28606 10
    endloop
  endfacet
  facet normal 0.406737 -0.913545 0
    outer loop
      vertex -3.44554 10.6043 -10
      vertex -3.44554 10.6043 10
      vertex -5.575 9.65618 10
    endloop
  endfacet
  facet normal 0.406737 -0.913545 0
    outer loop
      vertex -5.575 9.65618 -10
      vertex -3.44554 10.6043 -10
      vertex -5.575 9.65618 10
    endloop
  endfacet
  facet normal 0.207912 -0.978148 0
    outer loop
      vertex -1.16549 11.0889 -10
      vertex -1.16549 11.0889 10
      vertex -3.44554 10.6043 10
    endloop
  endfacet
  facet normal 0.207912 -0.978148 0
    outer loop
      vertex -3.44554 10.6043 -10
      vertex -1.16549 11.0889 -10
      vertex -3.44554 10.6043 10
    endloop
  endfacet
  facet normal 0 -1 0
    outer loop
      vertex 1.16549 11.0889 -10
      vertex 1.16549 11.0889 10
      vertex -1.16549 11.0889 10
    endloop
  endfacet
  facet normal 0 -1 0
    outer loop
      vertex -1.16549 11.0889 -10
      vertex 1.16549 11.0889 -10
      vertex -1.16549 11.0889 10
    endloop
  endfacet
  facet normal -0.207912 -0.978148 0
    outer loop
      vertex 3.44554 10.6043 -10
      vertex 3.44554 10.6043 10
      vertex 1.16549 11.0889 10
    endloop
  endfacet
  facet normal -0.207912 -0.978148 0
    outer loop
      vertex 1.16549 11.0889 -10
      vertex 3.44554 10.6043 -10
      vertex 1.16549 11.0889 10
    endloop
  endfacet
  facet normal -0.406737 -0.913545 0
    outer loop
      vertex 5.575 9.65618 -10
      vertex 5.575 9.65618 10
      vertex 3.44554 10.6043 10
    endloop
  endfacet
  facet normal -0.406737 -0.913545 0
    outer loop
      vertex 3.44554 10.6043 -10
      vertex 5.575 9.65618 -10
      vertex 3.44554 10.6043 10
    endloop
  endfacet
  facet normal -0.587785 -0.809017 0
    outer loop
      vertex 7.46081 8.28606 -10
      vertex 7.46081 8.28606 10
      vertex 5.575 9.65618 10
    endloop
  endfacet
  facet normal -0.587785 -0.809017 0
    outer loop
      vertex 5.575 9.65618 -10
      vertex 7.46081 8.28606 -10
      vertex 5.575 9.65618 10
    endloop
  endfacet
  facet normal -0.743145 -0.669131 0
    outer loop
      vertex 9.02054 6.55381 10
      vertex 7.46081 8.28606 10
      vertex 9.02054 6.55381 -10
    endloop
  endfacet
  facet normal -0.743145 -0.669131 0
    outer loop
      vertex 9.02054 6.55381 -10
      vertex 7.46081 8.28606 10
      vertex 7.46081 8.28606 -10
    endloop
  endfacet
  facet normal -0.866025 -0.5 0
    outer loop
      vertex 10.186 4.53511 10
      vertex 9.02054 6.55381 10
      vertex 10.186 4.53511 -10
    endloop
  endfacet
  facet normal -0.866025 -0.5 0
    outer loop
      vertex 10.186 4.53511 -10
      vertex 9.02054 6.55381 10
      vertex 9.02054 6.55381 -10
    endloop
  endfacet
  facet normal -0.951057 -0.309017 0
    outer loop
      vertex 10.9063 2.31821 10
      vertex 10.186 4.53511 10
      vertex 10.9063 2.31821 -10
    endloop
  endfacet
  facet normal -0.951057 -0.309017 0
    outer loop
      vertex 10.9063 2.31821 -10
      vertex 10.186 4.53511 10
      vertex 10.186 4.53511 -10
    endloop
  endfacet
  facet normal -0.994522 -0.104528 0
    outer loop
      vertex 11.15 0 10
      vertex 10.9063 2.31821 10
      vertex 11.15 0 -10
    endloop
  endfacet
  facet normal -0.994522 -0.104528 0
    outer loop
      vertex 11.15 0 -10
      vertex 10.9063 2.31821 10
      vertex 10.9063 2.31821 -10
    endloop
  endfacet
  facet normal -0.994522 0.104528 0
    outer loop
      vertex 11.15 0 10
      vertex 11.15 0 -10
      vertex 11.15 -8.88178e-016 10
    endloop
  endfacet
  facet normal -0.994522 0.104528 0
    outer loop
      vertex 11.15 -8.88178e-016 10
      vertex 11.15 0 -10
      vertex 11.15 -8.88178e-016 -10
    endloop
  endfacet
  facet normal -1 0 0
    outer loop
      vertex 11.15 -8.88178e-016 10
      vertex 11.15 -8.88178e-016 -10
      vertex 11.15 -11.9 10
    endloop
  endfacet
  facet normal -1 0 0
    outer loop
      vertex 11.15 -11.9 10
      vertex 11.15 -8.88178e-016 -10
      vertex 11.15 -11.9 -10
    endloop
  endfacet
  facet normal 0 -1 0
    outer loop
      vertex 22.205 -11.9 -1.94986
      vertex 11.15 -11.9 -10
      vertex 32.65 -11.9 -10
    endloop
  endfacet
  facet normal 0 -1 0
    outer loop
      vertex 24.65 -11.9 2.64233e-015
      vertex 23.897 -11.9 -1.56366
      vertex 32.65 -11.9 -10
    endloop
  endfacet
  facet normal 0 -1 0
    outer loop
      vertex 11.15 -11.9 10
      vertex 11.15 -11.9 -10
      vertex 20.8481 -11.9 -0.867767
    endloop
  endfacet
  facet normal 0 -1 0
    outer loop
      vertex 23.897 -11.9 -1.56366
      vertex 22.205 -11.9 -1.94986
      vertex 32.65 -11.9 -10
    endloop
  endfacet
  facet normal 0 -1 0
    outer loop
      vertex 11.15 -11.9 10
      vertex 20.8481 -11.9 -0.867767
      vertex 20.8481 -11.9 0.867767
    endloop
  endfacet
  facet normal 0 -1 0
    outer loop
      vertex 32.65 -11.9 10
      vertex 11.15 -11.9 10
      vertex 22.205 -11.9 1.94986
    endloop
  endfacet
  facet normal 0 -1 0
    outer loop
      vertex 32.65 -11.9 10
      vertex 23.897 -11.9 1.56366
      vertex 32.65 -11.9 -10
    endloop
  endfacet
  facet normal 0 -1 0
    outer loop
      vertex 32.65 -11.9 10
      vertex 22.205 -11.9 1.94986
      vertex 23.897 -11.9 1.56366
    endloop
  endfacet
  facet normal 0 -1 0
    outer loop
      vertex 23.897 -11.9 1.56366
      vertex 24.65 -11.9 2.64233e-015
      vertex 32.65 -11.9 -10
    endloop
  endfacet
  facet normal 0 -1 0
    outer loop
      vertex 20.8481 -11.9 -0.867767
      vertex 11.15 -11.9 -10
      vertex 22.205 -11.9 -1.94986
    endloop
  endfacet
  facet normal 0 -1 0
    outer loop
      vertex 20.8481 -11.9 0.867767
      vertex 22.205 -11.9 1.94986
      vertex 11.15 -11.9 10
    endloop
  endfacet
  facet normal 1 0 0
    outer loop
      vertex 32.65 -11.9 10
      vertex 32.65 -11.9 -10
      vertex 32.65 -10.4 -10
    endloop
  endfacet
  facet normal 1 0 0
    outer loop
      vertex 32.65 -10.4 10
      vertex 32.65 -11.9 10
      vertex 32.65 -10.4 -10
    endloop
  endfacet
  facet normal 0 1 0
    outer loop
      vertex 23.897 -10.4 1.56366
      vertex 12.65 -10.4 10
      vertex 32.65 -10.4 10
    endloop
  endfacet
  facet normal 0 1 0
    outer loop
      vertex 12.65 -10.4 -10
      vertex 12.65 -10.4 10
      vertex 20.8481 -10.4 0.867767
    endloop
  endfacet
  facet normal 0 1 0
    outer loop
      vertex 12.65 -10.4 -10
      vertex 20.8481 -10.4 0.867767
      vertex 20.8481 -10.4 -0.867767
    endloop
  endfacet
  facet normal 0 1 0
    outer loop
      vertex 12.65 -10.4 -10
      vertex 20.8481 -10.4 -0.867767
      vertex 22.205 -10.4 -1.94986
    endloop
  endfacet
  facet normal 0 1 0
    outer loop
      vertex 12.65 -10.4 -10
      vertex 22.205 -10.4 -1.94986
      vertex 32.65 -10.4 -10
    endloop
  endfacet
  facet normal 0 1 0
    outer loop
      vertex 23.897 -10.4 -1.56366
      vertex 32.65 -10.4 -10
      vertex 22.205 -10.4 -1.94986
    endloop
  endfacet
  facet normal 0 1 0
    outer loop
      vertex 24.65 -10.4 2.30926e-015
      vertex 32.65 -10.4 -10
      vertex 23.897 -10.4 -1.56366
    endloop
  endfacet
  facet normal 0 1 0
    outer loop
      vertex 32.65 -10.4 -10
      vertex 24.65 -10.4 2.30926e-015
      vertex 32.65 -10.4 10
    endloop
  endfacet
  facet normal 0 1 0
    outer loop
      vertex 24.65 -10.4 2.30926e-015
      vertex 23.897 -10.4 1.56366
      vertex 32.65 -10.4 10
    endloop
  endfacet
  facet normal 0 1 0
    outer loop
      vertex 22.205 -10.4 1.94986
      vertex 12.65 -10.4 10
      vertex 23.897 -10.4 1.56366
    endloop
  endfacet
  facet normal 0 1 0
    outer loop
      vertex 20.8481 -10.4 0.867767
      vertex 12.65 -10.4 10
      vertex 22.205 -10.4 1.94986
    endloop
  endfacet
  facet normal 1 0 0
    outer loop
      vertex 12.65 -10.4 10
      vertex 12.65 -10.4 -10
      vertex 12.65 -0.75 -10
    endloop
  endfacet
  facet normal 1 0 0
    outer loop
      vertex 12.65 -0.75 10
      vertex 12.65 -10.4 10
      vertex 12.65 -0.75 -10
    endloop
  endfacet
  facet normal 0 1 0
    outer loop
      vertex 12.5712 -0.75 -10
      vertex 12.5712 -0.75 10
      vertex 12.65 -0.75 -10
    endloop
  endfacet
  facet normal 0 1 0
    outer loop
      vertex 12.65 -0.75 -10
      vertex 12.5712 -0.75 10
      vertex 12.65 -0.75 10
    endloop
  endfacet
  facet normal 0.994522 -0.104529 0
    outer loop
      vertex 12.5712 -0.75 10
      vertex 12.5712 -0.75 -10
      vertex 12.65 0 -10
    endloop
  endfacet
  facet normal 0.994522 -0.104529 0
    outer loop
      vertex 12.65 0 10
      vertex 12.5712 -0.75 10
      vertex 12.65 0 -10
    endloop
  endfacet
  facet normal 0.994522 0.104529 0
    outer loop
      vertex 12.65 0 -10
      vertex 12.3736 2.63008 -10
      vertex 12.3736 2.63008 10
    endloop
  endfacet
  facet normal 0.994522 0.104529 0
    outer loop
      vertex 12.65 0 10
      vertex 12.65 0 -10
      vertex 12.3736 2.63008 10
    endloop
  endfacet
  facet normal 0.951057 0.309017 0
    outer loop
      vertex 12.3736 2.63008 -10
      vertex 11.5564 5.14522 -10
      vertex 11.5564 5.14522 10
    endloop
  endfacet
  facet normal 0.951057 0.309017 0
    outer loop
      vertex 12.3736 2.63008 10
      vertex 12.3736 2.63008 -10
      vertex 11.5564 5.14522 10
    endloop
  endfacet
  facet normal 0.866025 0.5 0
    outer loop
      vertex 11.5564 5.14522 -10
      vertex 10.2341 7.43548 -10
      vertex 10.2341 7.43548 10
    endloop
  endfacet
  facet normal 0.866025 0.5 0
    outer loop
      vertex 11.5564 5.14522 10
      vertex 11.5564 5.14522 -10
      vertex 10.2341 7.43548 10
    endloop
  endfacet
  facet normal 0.743145 0.669131 0
    outer loop
      vertex 10.2341 7.43548 -10
      vertex 8.4645 9.40078 -10
      vertex 8.4645 9.40078 10
    endloop
  endfacet
  facet normal 0.743145 0.669131 0
    outer loop
      vertex 10.2341 7.43548 10
      vertex 10.2341 7.43548 -10
      vertex 8.4645 9.40078 10
    endloop
  endfacet
  facet normal 0.587785 0.809017 0
    outer loop
      vertex 6.325 10.9552 -10
      vertex 6.325 10.9552 10
      vertex 8.4645 9.40078 -10
    endloop
  endfacet
  facet normal 0.587785 0.809017 0
    outer loop
      vertex 8.4645 9.40078 -10
      vertex 6.325 10.9552 10
      vertex 8.4645 9.40078 10
    endloop
  endfacet
  facet normal 0.406737 0.913545 0
    outer loop
      vertex 3.90907 12.0309 -10
      vertex 3.90907 12.0309 10
      vertex 6.325 10.9552 -10
    endloop
  endfacet
  facet normal 0.406737 0.913545 0
    outer loop
      vertex 6.325 10.9552 -10
      vertex 3.90907 12.0309 10
      vertex 6.325 10.9552 10
    endloop
  endfacet
  facet normal 0.207912 0.978148 0
    outer loop
      vertex 1.32228 12.5807 -10
      vertex 1.32228 12.5807 10
      vertex 3.90907 12.0309 -10
    endloop
  endfacet
  facet normal 0.207912 0.978148 0
    outer loop
      vertex 3.90907 12.0309 -10
      vertex 1.32228 12.5807 10
      vertex 3.90907 12.0309 10
    endloop
  endfacet
  facet normal 0 1 0
    outer loop
      vertex -1.32228 12.5807 -10
      vertex -1.32228 12.5807 10
      vertex 1.32228 12.5807 -10
    endloop
  endfacet
  facet normal 0 1 0
    outer loop
      vertex 1.32228 12.5807 -10
      vertex -1.32228 12.5807 10
      vertex 1.32228 12.5807 10
    endloop
  endfacet
  facet normal -0.207912 0.978148 0
    outer loop
      vertex -3.90907 12.0309 -10
      vertex -3.90907 12.0309 10
      vertex -1.32228 12.5807 -10
    endloop
  endfacet
  facet normal -0.207912 0.978148 0
    outer loop
      vertex -1.32228 12.5807 -10
      vertex -3.90907 12.0309 10
      vertex -1.32228 12.5807 10
    endloop
  endfacet
  facet normal -0.406737 0.913545 0
    outer loop
      vertex -6.325 10.9552 -10
      vertex -6.325 10.9552 10
      vertex -3.90907 12.0309 -10
    endloop
  endfacet
  facet normal -0.406737 0.913545 0
    outer loop
      vertex -3.90907 12.0309 -10
      vertex -6.325 10.9552 10
      vertex -3.90907 12.0309 10
    endloop
  endfacet
  facet normal -0.587785 0.809017 0
    outer loop
      vertex -8.4645 9.40078 -10
      vertex -8.4645 9.40078 10
      vertex -6.325 10.9552 -10
    endloop
  endfacet
  facet normal -0.587785 0.809017 0
    outer loop
      vertex -6.325 10.9552 -10
      vertex -8.4645 9.40078 10
      vertex -6.325 10.9552 10
    endloop
  endfacet
  facet normal -0.743145 0.669131 0
    outer loop
      vertex -10.2341 7.43548 -10
      vertex -10.2341 7.43548 10
      vertex -8.4645 9.40078 -10
    endloop
  endfacet
  facet normal -0.743145 0.669131 0
    outer loop
      vertex -8.4645 9.40078 -10
      vertex -10.2341 7.43548 10
      vertex -8.4645 9.40078 10
    endloop
  endfacet
  facet normal -0.866025 0.5 0
    outer loop
      vertex -11.5564 5.14522 -10
      vertex -11.5564 5.14522 10
      vertex -10.2341 7.43548 -10
    endloop
  endfacet
  facet normal -0.866025 0.5 0
    outer loop
      vertex -10.2341 7.43548 -10
      vertex -11.5564 5.14522 10
      vertex -10.2341 7.43548 10
    endloop
  endfacet
  facet normal -0.951057 0.309017 0
    outer loop
      vertex -12.3736 2.63008 -10
      vertex -12.3736 2.63008 10
      vertex -11.5564 5.14522 -10
    endloop
  endfacet
  facet normal -0.951057 0.309017 0
    outer loop
      vertex -11.5564 5.14522 -10
      vertex -12.3736 2.63008 10
      vertex -11.5564 5.14522 10
    endloop
  endfacet
  facet normal -0.994522 0.104529 0
    outer loop
      vertex -12.65 0 -10
      vertex -12.65 0 10
      vertex -12.3736 2.63008 -10
    endloop
  endfacet
  facet normal -0.994522 0.104529 0
    outer loop
      vertex -12.3736 2.63008 -10
      vertex -12.65 0 10
      vertex -12.3736 2.63008 10
    endloop
  endfacet
  facet normal -0.994522 -0.104529 0
    outer loop
      vertex -12.65 0 -10
      vertex -12.5712 -0.75 -10
      vertex -12.65 0 10
    endloop
  endfacet
  facet normal -0.994522 -0.104529 0
    outer loop
      vertex -12.65 0 10
      vertex -12.5712 -0.75 -10
      vertex -12.5712 -0.75 10
    endloop
  endfacet
  facet normal 0 1 0
    outer loop
      vertex -12.65 -0.75 -10
      vertex -12.65 -0.75 10
      vertex -12.5712 -0.75 -10
    endloop
  endfacet
  facet normal 0 1 0
    outer loop
      vertex -12.5712 -0.75 -10
      vertex -12.65 -0.75 10
      vertex -12.5712 -0.75 10
    endloop
  endfacet
  facet normal -1 0 0
    outer loop
      vertex -12.65 -10.4 -10
      vertex -12.65 -10.4 10
      vertex -12.65 -0.75 -10
    endloop
  endfacet
  facet normal -1 0 0
    outer loop
      vertex -12.65 -0.75 -10
      vertex -12.65 -10.4 10
      vertex -12.65 -0.75 10
    endloop
  endfacet
  facet normal 0.62349 1.73601e-016 0.781831
    outer loop
      vertex 22.205 -11.9 -1.94986
      vertex 22.205 -10.4 -1.94986
      vertex 20.8481 -10.4 -0.867767
    endloop
  endfacet
  facet normal 0.62349 1.73601e-016 0.781831
    outer loop
      vertex 20.8481 -11.9 -0.867767
      vertex 22.205 -11.9 -1.94986
      vertex 20.8481 -10.4 -0.867767
    endloop
  endfacet
  facet normal 1 0 0
    outer loop
      vertex 20.8481 -10.4 -0.867767
      vertex 20.8481 -10.4 0.867767
      vertex 20.8481 -11.9 0.867767
    endloop
  endfacet
  facet normal 1 0 0
    outer loop
      vertex 20.8481 -11.9 -0.867767
      vertex 20.8481 -10.4 -0.867767
      vertex 20.8481 -11.9 0.867767
    endloop
  endfacet
  facet normal -0.222521 2.16477e-016 0.974928
    outer loop
      vertex 23.897 -11.9 -1.56366
      vertex 23.897 -10.4 -1.56366
      vertex 22.205 -10.4 -1.94986
    endloop
  endfacet
  facet normal -0.222521 2.16477e-016 0.974928
    outer loop
      vertex 22.205 -11.9 -1.94986
      vertex 23.897 -11.9 -1.56366
      vertex 22.205 -10.4 -1.94986
    endloop
  endfacet
  facet normal -0.900969 9.63415e-017 0.433884
    outer loop
      vertex 24.65 -10.4 2.30926e-015
      vertex 23.897 -10.4 -1.56366
      vertex 24.65 -11.9 2.64233e-015
    endloop
  endfacet
  facet normal -0.900969 9.63415e-017 0.433884
    outer loop
      vertex 24.65 -11.9 2.64233e-015
      vertex 23.897 -10.4 -1.56366
      vertex 23.897 -11.9 -1.56366
    endloop
  endfacet
  facet normal -0.900969 -9.63415e-017 -0.433884
    outer loop
      vertex 24.65 -10.4 2.30926e-015
      vertex 24.65 -11.9 2.64233e-015
      vertex 23.897 -10.4 1.56366
    endloop
  endfacet
  facet normal -0.900969 -9.63415e-017 -0.433884
    outer loop
      vertex 23.897 -10.4 1.56366
      vertex 24.65 -11.9 2.64233e-015
      vertex 23.897 -11.9 1.56366
    endloop
  endfacet
  facet normal -0.222521 -2.16477e-016 -0.974928
    outer loop
      vertex 23.897 -10.4 1.56366
      vertex 23.897 -11.9 1.56366
      vertex 22.205 -10.4 1.94986
    endloop
  endfacet
  facet normal -0.222521 -2.16477e-016 -0.974928
    outer loop
      vertex 22.205 -10.4 1.94986
      vertex 23.897 -11.9 1.56366
      vertex 22.205 -11.9 1.94986
    endloop
  endfacet
  facet normal 0.62349 -1.73601e-016 -0.781831
    outer loop
      vertex 22.205 -10.4 1.94986
      vertex 22.205 -11.9 1.94986
      vertex 20.8481 -10.4 0.867767
    endloop
  endfacet
  facet normal 0.62349 -1.73601e-016 -0.781831
    outer loop
      vertex 20.8481 -10.4 0.867767
      vertex 22.205 -11.9 1.94986
      vertex 20.8481 -11.9 0.867767
    endloop
  endfacet
endsolid OpenSCAD_Model
