solid OpenSCAD_Model
  facet normal 0.994522 0.104529 0
    outer loop
      vertex 29 0 10
      vertex 28.3663 6.02944 -10
      vertex 28.3663 6.02944 10
    endloop
  endfacet
  facet normal 0.994522 0.104529 0
    outer loop
      vertex 28.3663 6.02944 -10
      vertex 29 0 10
      vertex 29 0 -10
    endloop
  endfacet
  facet normal -0.994522 0.104529 0
    outer loop
      vertex -29 0 -10
      vertex -28.3663 6.02944 10
      vertex -28.3663 6.02944 -10
    endloop
  endfacet
  facet normal -0.994522 0.104529 0
    outer loop
      vertex -28.3663 6.02944 10
      vertex -29 0 -10
      vertex -29 0 10
    endloop
  endfacet
  facet normal 0 1 -0
    outer loop
      vertex 3.03133 28.8411 -10
      vertex -3.03133 28.8411 10
      vertex 3.03133 28.8411 10
    endloop
  endfacet
  facet normal 0 1 0
    outer loop
      vertex -3.03133 28.8411 10
      vertex 3.03133 28.8411 -10
      vertex -3.03133 28.8411 -10
    endloop
  endfacet
  facet normal 0.587785 0.809017 -0
    outer loop
      vertex 19.4048 21.5512 -10
      vertex 14.5 25.1147 10
      vertex 19.4048 21.5512 10
    endloop
  endfacet
  facet normal 0.587785 0.809017 0
    outer loop
      vertex 14.5 25.1147 10
      vertex 19.4048 21.5512 -10
      vertex 14.5 25.1147 -10
    endloop
  endfacet
  facet normal 0.406737 0.913545 -0
    outer loop
      vertex 14.5 25.1147 -10
      vertex 8.96149 27.5806 10
      vertex 14.5 25.1147 10
    endloop
  endfacet
  facet normal 0.406737 0.913545 0
    outer loop
      vertex 8.96149 27.5806 10
      vertex 14.5 25.1147 -10
      vertex 8.96149 27.5806 -10
    endloop
  endfacet
  facet normal -0.587785 0.809017 0
    outer loop
      vertex -14.5 25.1147 -10
      vertex -19.4048 21.5512 10
      vertex -14.5 25.1147 10
    endloop
  endfacet
  facet normal -0.587785 0.809017 0
    outer loop
      vertex -19.4048 21.5512 10
      vertex -14.5 25.1147 -10
      vertex -19.4048 21.5512 -10
    endloop
  endfacet
  facet normal -0.207911 0.978148 0
    outer loop
      vertex -3.03133 28.8411 -10
      vertex -8.96149 27.5806 10
      vertex -3.03133 28.8411 10
    endloop
  endfacet
  facet normal -0.207911 0.978148 0
    outer loop
      vertex -8.96149 27.5806 10
      vertex -3.03133 28.8411 -10
      vertex -8.96149 27.5806 -10
    endloop
  endfacet
  facet normal 0.866025 0.5 0
    outer loop
      vertex 26.4928 11.7954 10
      vertex 23.4615 17.0458 -10
      vertex 23.4615 17.0458 10
    endloop
  endfacet
  facet normal 0.866025 0.5 0
    outer loop
      vertex 23.4615 17.0458 -10
      vertex 26.4928 11.7954 10
      vertex 26.4928 11.7954 -10
    endloop
  endfacet
  facet normal 0.951056 0.309017 0
    outer loop
      vertex 28.3663 6.02944 10
      vertex 26.4928 11.7954 -10
      vertex 26.4928 11.7954 10
    endloop
  endfacet
  facet normal 0.951056 0.309017 0
    outer loop
      vertex 26.4928 11.7954 -10
      vertex 28.3663 6.02944 10
      vertex 28.3663 6.02944 -10
    endloop
  endfacet
  facet normal 0.743145 0.669131 0
    outer loop
      vertex 23.4615 17.0458 10
      vertex 19.4048 21.5512 -10
      vertex 19.4048 21.5512 10
    endloop
  endfacet
  facet normal 0.743145 0.669131 0
    outer loop
      vertex 19.4048 21.5512 -10
      vertex 23.4615 17.0458 10
      vertex 23.4615 17.0458 -10
    endloop
  endfacet
  facet normal 0.207911 0.978148 -0
    outer loop
      vertex 8.96149 27.5806 -10
      vertex 3.03133 28.8411 10
      vertex 8.96149 27.5806 10
    endloop
  endfacet
  facet normal 0.207911 0.978148 0
    outer loop
      vertex 3.03133 28.8411 10
      vertex 8.96149 27.5806 -10
      vertex 3.03133 28.8411 -10
    endloop
  endfacet
  facet normal -0.866025 0.5 0
    outer loop
      vertex -26.4928 11.7954 -10
      vertex -23.4615 17.0458 10
      vertex -23.4615 17.0458 -10
    endloop
  endfacet
  facet normal -0.866025 0.5 0
    outer loop
      vertex -23.4615 17.0458 10
      vertex -26.4928 11.7954 -10
      vertex -26.4928 11.7954 10
    endloop
  endfacet
  facet normal -0.743145 0.669131 0
    outer loop
      vertex -23.4615 17.0458 -10
      vertex -19.4048 21.5512 10
      vertex -19.4048 21.5512 -10
    endloop
  endfacet
  facet normal -0.743145 0.669131 0
    outer loop
      vertex -19.4048 21.5512 10
      vertex -23.4615 17.0458 -10
      vertex -23.4615 17.0458 10
    endloop
  endfacet
  facet normal -0.951056 0.309017 0
    outer loop
      vertex -28.3663 6.02944 -10
      vertex -26.4928 11.7954 10
      vertex -26.4928 11.7954 -10
    endloop
  endfacet
  facet normal -0.951056 0.309017 0
    outer loop
      vertex -26.4928 11.7954 10
      vertex -28.3663 6.02944 -10
      vertex -28.3663 6.02944 10
    endloop
  endfacet
  facet normal 0 0 1
    outer loop
      vertex 25 0 10
      vertex 29 0 10
      vertex 28.3663 6.02944 10
    endloop
  endfacet
  facet normal 0 0 1
    outer loop
      vertex 29 -2 10
      vertex 28.7898 -2 10
      vertex 29 -23 10
    endloop
  endfacet
  facet normal -0 0 1
    outer loop
      vertex 29 -23 10
      vertex 49 -27 10
      vertex 49 -23 10
    endloop
  endfacet
  facet normal 0 0 1
    outer loop
      vertex 29 0 10
      vertex 25 0 10
      vertex 28.7898 -2 10
    endloop
  endfacet
  facet normal 0 0 1
    outer loop
      vertex 24.4537 5.19779 10
      vertex 28.3663 6.02944 10
      vertex 26.4928 11.7954 10
    endloop
  endfacet
  facet normal 0 0 1
    outer loop
      vertex 28.7898 -2 10
      vertex 25 0 10
      vertex 29 -23 10
    endloop
  endfacet
  facet normal 0 0 1
    outer loop
      vertex 29 -23 10
      vertex 25 -27 10
      vertex 49 -27 10
    endloop
  endfacet
  facet normal 0 0 1
    outer loop
      vertex 25 -27 10
      vertex 29 -23 10
      vertex 25 0 10
    endloop
  endfacet
  facet normal 0 0 1
    outer loop
      vertex -25 0 10
      vertex -29 0 10
      vertex -28.7898 -2 10
    endloop
  endfacet
  facet normal 0 0 1
    outer loop
      vertex 28.3663 6.02944 10
      vertex 24.4537 5.19779 10
      vertex 25 0 10
    endloop
  endfacet
  facet normal 0 0 1
    outer loop
      vertex 22.8386 10.1684 10
      vertex 26.4928 11.7954 10
      vertex 23.4615 17.0458 10
    endloop
  endfacet
  facet normal 0 0 1
    outer loop
      vertex 26.4928 11.7954 10
      vertex 22.8386 10.1684 10
      vertex 24.4537 5.19779 10
    endloop
  endfacet
  facet normal 0 0 1
    outer loop
      vertex 23.4615 17.0458 10
      vertex 20.2254 14.6946 10
      vertex 22.8386 10.1684 10
    endloop
  endfacet
  facet normal 0 0 1
    outer loop
      vertex 19.4048 21.5512 10
      vertex 20.2254 14.6946 10
      vertex 23.4615 17.0458 10
    endloop
  endfacet
  facet normal 0 0 1
    outer loop
      vertex 19.4048 21.5512 10
      vertex 16.7283 18.5786 10
      vertex 20.2254 14.6946 10
    endloop
  endfacet
  facet normal 0 0 1
    outer loop
      vertex 14.5 25.1147 10
      vertex 16.7283 18.5786 10
      vertex 19.4048 21.5512 10
    endloop
  endfacet
  facet normal 0 0 1
    outer loop
      vertex 14.5 25.1147 10
      vertex 12.5 21.6506 10
      vertex 16.7283 18.5786 10
    endloop
  endfacet
  facet normal 0 0 1
    outer loop
      vertex 8.96149 27.5806 10
      vertex 12.5 21.6506 10
      vertex 14.5 25.1147 10
    endloop
  endfacet
  facet normal 0 0 1
    outer loop
      vertex 8.96149 27.5806 10
      vertex 7.72542 23.7764 10
      vertex 12.5 21.6506 10
    endloop
  endfacet
  facet normal 0 0 1
    outer loop
      vertex 3.03133 28.8411 10
      vertex 7.72542 23.7764 10
      vertex 8.96149 27.5806 10
    endloop
  endfacet
  facet normal 0 0 1
    outer loop
      vertex 3.03133 28.8411 10
      vertex 2.61321 24.863 10
      vertex 7.72542 23.7764 10
    endloop
  endfacet
  facet normal 0 0 1
    outer loop
      vertex 3.03133 28.8411 10
      vertex -2.61321 24.863 10
      vertex 2.61321 24.863 10
    endloop
  endfacet
  facet normal -0 0 1
    outer loop
      vertex -3.03133 28.8411 10
      vertex -2.61321 24.863 10
      vertex 3.03133 28.8411 10
    endloop
  endfacet
  facet normal 0 0 1
    outer loop
      vertex -3.03133 28.8411 10
      vertex -7.72542 23.7764 10
      vertex -2.61321 24.863 10
    endloop
  endfacet
  facet normal -0 0 1
    outer loop
      vertex -8.96149 27.5806 10
      vertex -7.72542 23.7764 10
      vertex -3.03133 28.8411 10
    endloop
  endfacet
  facet normal 0 0 1
    outer loop
      vertex -8.96149 27.5806 10
      vertex -12.5 21.6506 10
      vertex -7.72542 23.7764 10
    endloop
  endfacet
  facet normal -0 0 1
    outer loop
      vertex -14.5 25.1147 10
      vertex -12.5 21.6506 10
      vertex -8.96149 27.5806 10
    endloop
  endfacet
  facet normal 0 0 1
    outer loop
      vertex -14.5 25.1147 10
      vertex -16.7283 18.5786 10
      vertex -12.5 21.6506 10
    endloop
  endfacet
  facet normal -0 0 1
    outer loop
      vertex -19.4048 21.5512 10
      vertex -16.7283 18.5786 10
      vertex -14.5 25.1147 10
    endloop
  endfacet
  facet normal 0 0 1
    outer loop
      vertex -19.4048 21.5512 10
      vertex -20.2254 14.6946 10
      vertex -16.7283 18.5786 10
    endloop
  endfacet
  facet normal -0 0 1
    outer loop
      vertex -23.4615 17.0458 10
      vertex -20.2254 14.6946 10
      vertex -19.4048 21.5512 10
    endloop
  endfacet
  facet normal 0 0 1
    outer loop
      vertex -20.2254 14.6946 10
      vertex -23.4615 17.0458 10
      vertex -22.8386 10.1684 10
    endloop
  endfacet
  facet normal -0 0 1
    outer loop
      vertex -26.4928 11.7954 10
      vertex -22.8386 10.1684 10
      vertex -23.4615 17.0458 10
    endloop
  endfacet
  facet normal 0 0 1
    outer loop
      vertex -22.8386 10.1684 10
      vertex -26.4928 11.7954 10
      vertex -24.4537 5.19779 10
    endloop
  endfacet
  facet normal -0 0 1
    outer loop
      vertex -28.3663 6.02944 10
      vertex -24.4537 5.19779 10
      vertex -26.4928 11.7954 10
    endloop
  endfacet
  facet normal 0 0 1
    outer loop
      vertex -24.4537 5.19779 10
      vertex -28.3663 6.02944 10
      vertex -25 0 10
    endloop
  endfacet
  facet normal 0 0 1
    outer loop
      vertex -29 0 10
      vertex -25 0 10
      vertex -28.3663 6.02944 10
    endloop
  endfacet
  facet normal 0 0 1
    outer loop
      vertex -29 -23 10
      vertex -25 0 10
      vertex -28.7898 -2 10
    endloop
  endfacet
  facet normal 0 0 1
    outer loop
      vertex -29 -23 10
      vertex -28.7898 -2 10
      vertex -29 -2 10
    endloop
  endfacet
  facet normal 0 0 1
    outer loop
      vertex -25 0 10
      vertex -29 -23 10
      vertex -25 -27 10
    endloop
  endfacet
  facet normal 0 0 1
    outer loop
      vertex -49 -27 10
      vertex -29 -23 10
      vertex -49 -23 10
    endloop
  endfacet
  facet normal 0 0 1
    outer loop
      vertex -29 -23 10
      vertex -49 -27 10
      vertex -25 -27 10
    endloop
  endfacet
  facet normal -0.406737 0.913545 0
    outer loop
      vertex -8.96149 27.5806 -10
      vertex -14.5 25.1147 10
      vertex -8.96149 27.5806 10
    endloop
  endfacet
  facet normal -0.406737 0.913545 0
    outer loop
      vertex -14.5 25.1147 10
      vertex -8.96149 27.5806 -10
      vertex -14.5 25.1147 -10
    endloop
  endfacet
  facet normal 0.994522 -0.104529 0
    outer loop
      vertex 28.7898 -2 10
      vertex 29 0 -10
      vertex 29 0 10
    endloop
  endfacet
  facet normal 0.994522 -0.104529 0
    outer loop
      vertex 29 0 -10
      vertex 28.7898 -2 10
      vertex 28.7898 -2 -10
    endloop
  endfacet
  facet normal 0 0 -1
    outer loop
      vertex -29 -23 -10
      vertex -25 0 -10
      vertex -25 -27 -10
    endloop
  endfacet
  facet normal 0 0 -1
    outer loop
      vertex -29 0 -10
      vertex -25 0 -10
      vertex -28.7898 -2 -10
    endloop
  endfacet
  facet normal 0 0 -1
    outer loop
      vertex -25 0 -10
      vertex -28.3663 6.02944 -10
      vertex -26.4928 11.7954 -10
    endloop
  endfacet
  facet normal 0 0 -1
    outer loop
      vertex -25 0 -10
      vertex -29 -23 -10
      vertex -28.7898 -2 -10
    endloop
  endfacet
  facet normal 0 0 -1
    outer loop
      vertex -49 -27 -10
      vertex -29 -23 -10
      vertex -25 -27 -10
    endloop
  endfacet
  facet normal -0 0 -1
    outer loop
      vertex -29 -23 -10
      vertex -49 -27 -10
      vertex -49 -23 -10
    endloop
  endfacet
  facet normal 0 0 -1
    outer loop
      vertex 49 -27 -10
      vertex 29 -23 -10
      vertex 49 -23 -10
    endloop
  endfacet
  facet normal 0 0 -1
    outer loop
      vertex 29 -23 -10
      vertex 28.7898 -2 -10
      vertex 29 -2 -10
    endloop
  endfacet
  facet normal 0 0 -1
    outer loop
      vertex 25 0 -10
      vertex 28.7898 -2 -10
      vertex 29 -23 -10
    endloop
  endfacet
  facet normal 0 0 -1
    outer loop
      vertex 28.7898 -2 -10
      vertex 25 0 -10
      vertex 28.3663 6.02944 -10
    endloop
  endfacet
  facet normal 0 0 -1
    outer loop
      vertex 25 -27 -10
      vertex 29 -23 -10
      vertex 49 -27 -10
    endloop
  endfacet
  facet normal 0 0 -1
    outer loop
      vertex 25 0 -10
      vertex 29 -23 -10
      vertex 25 -27 -10
    endloop
  endfacet
  facet normal 0 0 -1
    outer loop
      vertex 24.4537 5.19779 -10
      vertex 28.3663 6.02944 -10
      vertex 25 0 -10
    endloop
  endfacet
  facet normal -0 0 -1
    outer loop
      vertex 28.3663 6.02944 -10
      vertex 24.4537 5.19779 -10
      vertex 26.4928 11.7954 -10
    endloop
  endfacet
  facet normal 0 0 -1
    outer loop
      vertex 22.8386 10.1684 -10
      vertex 26.4928 11.7954 -10
      vertex 24.4537 5.19779 -10
    endloop
  endfacet
  facet normal -0 0 -1
    outer loop
      vertex 26.4928 11.7954 -10
      vertex 22.8386 10.1684 -10
      vertex 23.4615 17.0458 -10
    endloop
  endfacet
  facet normal 0 0 -1
    outer loop
      vertex 20.2254 14.6946 -10
      vertex 23.4615 17.0458 -10
      vertex 22.8386 10.1684 -10
    endloop
  endfacet
  facet normal 0 0 -1
    outer loop
      vertex 20.2254 14.6946 -10
      vertex 19.4048 21.5512 -10
      vertex 23.4615 17.0458 -10
    endloop
  endfacet
  facet normal 0 0 -1
    outer loop
      vertex 16.7283 18.5786 -10
      vertex 19.4048 21.5512 -10
      vertex 20.2254 14.6946 -10
    endloop
  endfacet
  facet normal 0 0 -1
    outer loop
      vertex 16.7283 18.5786 -10
      vertex 14.5 25.1147 -10
      vertex 19.4048 21.5512 -10
    endloop
  endfacet
  facet normal 0 0 -1
    outer loop
      vertex 12.5 21.6506 -10
      vertex 14.5 25.1147 -10
      vertex 16.7283 18.5786 -10
    endloop
  endfacet
  facet normal 0 0 -1
    outer loop
      vertex 12.5 21.6506 -10
      vertex 8.96149 27.5806 -10
      vertex 14.5 25.1147 -10
    endloop
  endfacet
  facet normal 0 0 -1
    outer loop
      vertex 7.72542 23.7764 -10
      vertex 8.96149 27.5806 -10
      vertex 12.5 21.6506 -10
    endloop
  endfacet
  facet normal 0 0 -1
    outer loop
      vertex 7.72542 23.7764 -10
      vertex 3.03133 28.8411 -10
      vertex 8.96149 27.5806 -10
    endloop
  endfacet
  facet normal 0 0 -1
    outer loop
      vertex 2.61321 24.863 -10
      vertex 3.03133 28.8411 -10
      vertex 7.72542 23.7764 -10
    endloop
  endfacet
  facet normal 0 0 -1
    outer loop
      vertex -2.61321 24.863 -10
      vertex 3.03133 28.8411 -10
      vertex 2.61321 24.863 -10
    endloop
  endfacet
  facet normal 0 0 -1
    outer loop
      vertex -2.61321 24.863 -10
      vertex -3.03133 28.8411 -10
      vertex 3.03133 28.8411 -10
    endloop
  endfacet
  facet normal 0 0 -1
    outer loop
      vertex -7.72542 23.7764 -10
      vertex -3.03133 28.8411 -10
      vertex -2.61321 24.863 -10
    endloop
  endfacet
  facet normal 0 0 -1
    outer loop
      vertex -7.72542 23.7764 -10
      vertex -8.96149 27.5806 -10
      vertex -3.03133 28.8411 -10
    endloop
  endfacet
  facet normal 0 0 -1
    outer loop
      vertex -12.5 21.6506 -10
      vertex -8.96149 27.5806 -10
      vertex -7.72542 23.7764 -10
    endloop
  endfacet
  facet normal 0 0 -1
    outer loop
      vertex -12.5 21.6506 -10
      vertex -14.5 25.1147 -10
      vertex -8.96149 27.5806 -10
    endloop
  endfacet
  facet normal 0 0 -1
    outer loop
      vertex -16.7283 18.5786 -10
      vertex -14.5 25.1147 -10
      vertex -12.5 21.6506 -10
    endloop
  endfacet
  facet normal 0 0 -1
    outer loop
      vertex -16.7283 18.5786 -10
      vertex -19.4048 21.5512 -10
      vertex -14.5 25.1147 -10
    endloop
  endfacet
  facet normal 0 0 -1
    outer loop
      vertex -20.2254 14.6946 -10
      vertex -19.4048 21.5512 -10
      vertex -16.7283 18.5786 -10
    endloop
  endfacet
  facet normal 0 0 -1
    outer loop
      vertex -23.4615 17.0458 -10
      vertex -20.2254 14.6946 -10
      vertex -22.8386 10.1684 -10
    endloop
  endfacet
  facet normal 0 0 -1
    outer loop
      vertex -20.2254 14.6946 -10
      vertex -23.4615 17.0458 -10
      vertex -19.4048 21.5512 -10
    endloop
  endfacet
  facet normal 0 0 -1
    outer loop
      vertex -26.4928 11.7954 -10
      vertex -22.8386 10.1684 -10
      vertex -24.4537 5.19779 -10
    endloop
  endfacet
  facet normal 0 0 -1
    outer loop
      vertex -26.4928 11.7954 -10
      vertex -24.4537 5.19779 -10
      vertex -25 0 -10
    endloop
  endfacet
  facet normal 0 0 -1
    outer loop
      vertex -22.8386 10.1684 -10
      vertex -26.4928 11.7954 -10
      vertex -23.4615 17.0458 -10
    endloop
  endfacet
  facet normal -0 0 -1
    outer loop
      vertex 29 0 -10
      vertex 28.7898 -2 -10
      vertex 28.3663 6.02944 -10
    endloop
  endfacet
  facet normal 0 0 -1
    outer loop
      vertex -25 0 -10
      vertex -29 0 -10
      vertex -28.3663 6.02944 -10
    endloop
  endfacet
  facet normal -0 0 -1
    outer loop
      vertex -28.7898 -2 -10
      vertex -29 -23 -10
      vertex -29 -2 -10
    endloop
  endfacet
  facet normal -0.994522 -0.104529 0
    outer loop
      vertex -28.7898 -2 -10
      vertex -29 0 10
      vertex -29 0 -10
    endloop
  endfacet
  facet normal -0.994522 -0.104529 0
    outer loop
      vertex -29 0 10
      vertex -28.7898 -2 -10
      vertex -28.7898 -2 10
    endloop
  endfacet
  facet normal -0.994522 -0.104529 0
    outer loop
      vertex 25 0 -10
      vertex 24.4537 5.19779 10
      vertex 24.4537 5.19779 -10
    endloop
  endfacet
  facet normal -0.994522 -0.104529 0
    outer loop
      vertex 24.4537 5.19779 10
      vertex 25 0 -10
      vertex 25 0 10
    endloop
  endfacet
  facet normal 0.994522 -0.104529 0
    outer loop
      vertex -25 0 10
      vertex -24.4537 5.19779 -10
      vertex -24.4537 5.19779 10
    endloop
  endfacet
  facet normal 0.994522 -0.104529 0
    outer loop
      vertex -24.4537 5.19779 -10
      vertex -25 0 10
      vertex -25 0 -10
    endloop
  endfacet
  facet normal 0 -1 0
    outer loop
      vertex -2.61321 24.863 -10
      vertex 2.61321 24.863 10
      vertex -2.61321 24.863 10
    endloop
  endfacet
  facet normal 0 -1 -0
    outer loop
      vertex 2.61321 24.863 10
      vertex -2.61321 24.863 -10
      vertex 2.61321 24.863 -10
    endloop
  endfacet
  facet normal -0.587785 -0.809017 0
    outer loop
      vertex 12.5 21.6506 -10
      vertex 16.7283 18.5786 10
      vertex 12.5 21.6506 10
    endloop
  endfacet
  facet normal -0.587785 -0.809017 -0
    outer loop
      vertex 16.7283 18.5786 10
      vertex 12.5 21.6506 -10
      vertex 16.7283 18.5786 -10
    endloop
  endfacet
  facet normal 0.743145 -0.669131 0
    outer loop
      vertex -20.2254 14.6946 10
      vertex -16.7283 18.5786 -10
      vertex -16.7283 18.5786 10
    endloop
  endfacet
  facet normal 0.743145 -0.669131 0
    outer loop
      vertex -16.7283 18.5786 -10
      vertex -20.2254 14.6946 10
      vertex -20.2254 14.6946 -10
    endloop
  endfacet
  facet normal 0.866025 -0.5 0
    outer loop
      vertex -22.8386 10.1684 10
      vertex -20.2254 14.6946 -10
      vertex -20.2254 14.6946 10
    endloop
  endfacet
  facet normal 0.866025 -0.5 0
    outer loop
      vertex -20.2254 14.6946 -10
      vertex -22.8386 10.1684 10
      vertex -22.8386 10.1684 -10
    endloop
  endfacet
  facet normal 0.406737 -0.913545 0
    outer loop
      vertex -12.5 21.6506 -10
      vertex -7.72542 23.7764 10
      vertex -12.5 21.6506 10
    endloop
  endfacet
  facet normal 0.406737 -0.913545 0
    outer loop
      vertex -7.72542 23.7764 10
      vertex -12.5 21.6506 -10
      vertex -7.72542 23.7764 -10
    endloop
  endfacet
  facet normal -0.866025 -0.5 0
    outer loop
      vertex 22.8386 10.1684 -10
      vertex 20.2254 14.6946 10
      vertex 20.2254 14.6946 -10
    endloop
  endfacet
  facet normal -0.866025 -0.5 0
    outer loop
      vertex 20.2254 14.6946 10
      vertex 22.8386 10.1684 -10
      vertex 22.8386 10.1684 10
    endloop
  endfacet
  facet normal -0.951057 -0.309017 0
    outer loop
      vertex 24.4537 5.19779 -10
      vertex 22.8386 10.1684 10
      vertex 22.8386 10.1684 -10
    endloop
  endfacet
  facet normal -0.951057 -0.309017 0
    outer loop
      vertex 22.8386 10.1684 10
      vertex 24.4537 5.19779 -10
      vertex 24.4537 5.19779 10
    endloop
  endfacet
  facet normal -0.743145 -0.669131 0
    outer loop
      vertex 20.2254 14.6946 -10
      vertex 16.7283 18.5786 10
      vertex 16.7283 18.5786 -10
    endloop
  endfacet
  facet normal -0.743145 -0.669131 0
    outer loop
      vertex 16.7283 18.5786 10
      vertex 20.2254 14.6946 -10
      vertex 20.2254 14.6946 10
    endloop
  endfacet
  facet normal -0.207912 -0.978148 0
    outer loop
      vertex 2.61321 24.863 -10
      vertex 7.72542 23.7764 10
      vertex 2.61321 24.863 10
    endloop
  endfacet
  facet normal -0.207912 -0.978148 -0
    outer loop
      vertex 7.72542 23.7764 10
      vertex 2.61321 24.863 -10
      vertex 7.72542 23.7764 -10
    endloop
  endfacet
  facet normal -0.406737 -0.913545 0
    outer loop
      vertex 7.72542 23.7764 -10
      vertex 12.5 21.6506 10
      vertex 7.72542 23.7764 10
    endloop
  endfacet
  facet normal -0.406737 -0.913545 -0
    outer loop
      vertex 12.5 21.6506 10
      vertex 7.72542 23.7764 -10
      vertex 12.5 21.6506 -10
    endloop
  endfacet
  facet normal 0.951057 -0.309017 0
    outer loop
      vertex -24.4537 5.19779 10
      vertex -22.8386 10.1684 -10
      vertex -22.8386 10.1684 10
    endloop
  endfacet
  facet normal 0.951057 -0.309017 0
    outer loop
      vertex -22.8386 10.1684 -10
      vertex -24.4537 5.19779 10
      vertex -24.4537 5.19779 -10
    endloop
  endfacet
  facet normal 0.587785 -0.809017 0
    outer loop
      vertex -16.7283 18.5786 -10
      vertex -12.5 21.6506 10
      vertex -16.7283 18.5786 10
    endloop
  endfacet
  facet normal 0.587785 -0.809017 0
    outer loop
      vertex -12.5 21.6506 10
      vertex -16.7283 18.5786 -10
      vertex -12.5 21.6506 -10
    endloop
  endfacet
  facet normal 0.207912 -0.978148 0
    outer loop
      vertex -7.72542 23.7764 -10
      vertex -2.61321 24.863 10
      vertex -7.72542 23.7764 10
    endloop
  endfacet
  facet normal 0.207912 -0.978148 0
    outer loop
      vertex -2.61321 24.863 10
      vertex -7.72542 23.7764 -10
      vertex -2.61321 24.863 -10
    endloop
  endfacet
  facet normal 1 -0 0
    outer loop
      vertex -25 -27 10
      vertex -25 0 -10
      vertex -25 0 10
    endloop
  endfacet
  facet normal 1 0 0
    outer loop
      vertex -25 0 -10
      vertex -25 -27 10
      vertex -25 -27 -10
    endloop
  endfacet
  facet normal -1 0 0
    outer loop
      vertex 25 -27 -10
      vertex 25 0 10
      vertex 25 0 -10
    endloop
  endfacet
  facet normal -1 -0 0
    outer loop
      vertex 25 0 10
      vertex 25 -27 -10
      vertex 25 -27 10
    endloop
  endfacet
  facet normal -1 0 0
    outer loop
      vertex -49 -27 -10
      vertex -49 -23 10
      vertex -49 -23 -10
    endloop
  endfacet
  facet normal -1 -0 0
    outer loop
      vertex -49 -23 10
      vertex -49 -27 -10
      vertex -49 -27 10
    endloop
  endfacet
  facet normal 1 -0 0
    outer loop
      vertex 49 -27 10
      vertex 49 -23 -10
      vertex 49 -23 10
    endloop
  endfacet
  facet normal 1 0 0
    outer loop
      vertex 49 -23 -10
      vertex 49 -27 10
      vertex 49 -27 -10
    endloop
  endfacet
  facet normal 0 -1 0
    outer loop
      vertex -49 -27 10
      vertex -39.445 -27 1.94986
      vertex -25 -27 10
    endloop
  endfacet
  facet normal 0 -1 0
    outer loop
      vertex -49 -27 10
      vertex -40.8019 -27 0.867767
      vertex -39.445 -27 1.94986
    endloop
  endfacet
  facet normal 0 -1 0
    outer loop
      vertex -49 -27 10
      vertex -40.8019 -27 -0.867767
      vertex -40.8019 -27 0.867767
    endloop
  endfacet
  facet normal 0 -1 -0
    outer loop
      vertex -40.8019 -27 -0.867767
      vertex -49 -27 -10
      vertex -39.445 -27 -1.94986
    endloop
  endfacet
  facet normal 0 -1 0
    outer loop
      vertex -49 -27 -10
      vertex -40.8019 -27 -0.867767
      vertex -49 -27 10
    endloop
  endfacet
  facet normal 0 -1 0
    outer loop
      vertex -37.753 -27 1.56366
      vertex -25 -27 10
      vertex -39.445 -27 1.94986
    endloop
  endfacet
  facet normal 0 -1 0
    outer loop
      vertex -37 -27 0
      vertex -25 -27 10
      vertex -37.753 -27 1.56366
    endloop
  endfacet
  facet normal 0 -1 0
    outer loop
      vertex -25 -27 -10
      vertex -37 -27 0
      vertex -37.753 -27 -1.56366
    endloop
  endfacet
  facet normal 0 -1 0
    outer loop
      vertex -25 -27 -10
      vertex -39.445 -27 -1.94986
      vertex -49 -27 -10
    endloop
  endfacet
  facet normal 0 -1 0
    outer loop
      vertex -37 -27 0
      vertex -25 -27 -10
      vertex -25 -27 10
    endloop
  endfacet
  facet normal 0 -1 0
    outer loop
      vertex -39.445 -27 -1.94986
      vertex -25 -27 -10
      vertex -37.753 -27 -1.56366
    endloop
  endfacet
  facet normal 0 -1 0
    outer loop
      vertex 25 -27 10
      vertex 38.555 -27 1.94986
      vertex 49 -27 10
    endloop
  endfacet
  facet normal 0 -1 0
    outer loop
      vertex 25 -27 10
      vertex 37.1981 -27 0.867767
      vertex 38.555 -27 1.94986
    endloop
  endfacet
  facet normal 0 -1 0
    outer loop
      vertex 25 -27 10
      vertex 37.1981 -27 -0.867767
      vertex 37.1981 -27 0.867767
    endloop
  endfacet
  facet normal 0 -1 -0
    outer loop
      vertex 37.1981 -27 -0.867767
      vertex 25 -27 -10
      vertex 38.555 -27 -1.94986
    endloop
  endfacet
  facet normal 0 -1 0
    outer loop
      vertex 25 -27 -10
      vertex 37.1981 -27 -0.867767
      vertex 25 -27 10
    endloop
  endfacet
  facet normal 0 -1 0
    outer loop
      vertex 40.247 -27 1.56366
      vertex 49 -27 10
      vertex 38.555 -27 1.94986
    endloop
  endfacet
  facet normal 0 -1 0
    outer loop
      vertex 41 -27 0
      vertex 49 -27 10
      vertex 40.247 -27 1.56366
    endloop
  endfacet
  facet normal 0 -1 0
    outer loop
      vertex 49 -27 -10
      vertex 41 -27 0
      vertex 40.247 -27 -1.56366
    endloop
  endfacet
  facet normal 0 -1 0
    outer loop
      vertex 49 -27 -10
      vertex 38.555 -27 -1.94986
      vertex 25 -27 -10
    endloop
  endfacet
  facet normal 0 -1 0
    outer loop
      vertex 41 -27 0
      vertex 49 -27 -10
      vertex 49 -27 10
    endloop
  endfacet
  facet normal 0 -1 0
    outer loop
      vertex 38.555 -27 -1.94986
      vertex 49 -27 -10
      vertex 40.247 -27 -1.56366
    endloop
  endfacet
  facet normal 0 1 0
    outer loop
      vertex 49 -23 10
      vertex 38.555 -23 1.94986
      vertex 29 -23 10
    endloop
  endfacet
  facet normal 0 1 0
    outer loop
      vertex 49 -23 10
      vertex 40.247 -23 1.56366
      vertex 38.555 -23 1.94986
    endloop
  endfacet
  facet normal 0 1 0
    outer loop
      vertex 49 -23 10
      vertex 41 -23 0
      vertex 40.247 -23 1.56366
    endloop
  endfacet
  facet normal 0 1 -0
    outer loop
      vertex 49 -23 -10
      vertex 41 -23 0
      vertex 49 -23 10
    endloop
  endfacet
  facet normal 0 1 0
    outer loop
      vertex 40.247 -23 -1.56366
      vertex 49 -23 -10
      vertex 38.555 -23 -1.94986
    endloop
  endfacet
  facet normal 0 1 0
    outer loop
      vertex 41 -23 0
      vertex 49 -23 -10
      vertex 40.247 -23 -1.56366
    endloop
  endfacet
  facet normal 0 1 -0
    outer loop
      vertex 37.1981 -23 0.867767
      vertex 29 -23 10
      vertex 38.555 -23 1.94986
    endloop
  endfacet
  facet normal 0 1 -0
    outer loop
      vertex 37.1981 -23 -0.867767
      vertex 29 -23 10
      vertex 37.1981 -23 0.867767
    endloop
  endfacet
  facet normal 0 1 0
    outer loop
      vertex 37.1981 -23 -0.867767
      vertex 29 -23 -10
      vertex 29 -23 10
    endloop
  endfacet
  facet normal 0 1 0
    outer loop
      vertex 38.555 -23 -1.94986
      vertex 29 -23 -10
      vertex 37.1981 -23 -0.867767
    endloop
  endfacet
  facet normal 0 1 0
    outer loop
      vertex 29 -23 -10
      vertex 38.555 -23 -1.94986
      vertex 49 -23 -10
    endloop
  endfacet
  facet normal 0 1 0
    outer loop
      vertex -29 -23 10
      vertex -39.445 -23 1.94986
      vertex -49 -23 10
    endloop
  endfacet
  facet normal 0 1 0
    outer loop
      vertex -29 -23 10
      vertex -37.753 -23 1.56366
      vertex -39.445 -23 1.94986
    endloop
  endfacet
  facet normal 0 1 0
    outer loop
      vertex -29 -23 10
      vertex -37 -23 0
      vertex -37.753 -23 1.56366
    endloop
  endfacet
  facet normal 0 1 -0
    outer loop
      vertex -29 -23 -10
      vertex -37 -23 0
      vertex -29 -23 10
    endloop
  endfacet
  facet normal 0 1 0
    outer loop
      vertex -37.753 -23 -1.56366
      vertex -29 -23 -10
      vertex -39.445 -23 -1.94986
    endloop
  endfacet
  facet normal 0 1 0
    outer loop
      vertex -37 -23 0
      vertex -29 -23 -10
      vertex -37.753 -23 -1.56366
    endloop
  endfacet
  facet normal 0 1 -0
    outer loop
      vertex -40.8019 -23 0.867767
      vertex -49 -23 10
      vertex -39.445 -23 1.94986
    endloop
  endfacet
  facet normal 0 1 -0
    outer loop
      vertex -40.8019 -23 -0.867767
      vertex -49 -23 10
      vertex -40.8019 -23 0.867767
    endloop
  endfacet
  facet normal 0 1 0
    outer loop
      vertex -40.8019 -23 -0.867767
      vertex -49 -23 -10
      vertex -49 -23 10
    endloop
  endfacet
  facet normal 0 1 0
    outer loop
      vertex -39.445 -23 -1.94986
      vertex -49 -23 -10
      vertex -40.8019 -23 -0.867767
    endloop
  endfacet
  facet normal 0 1 0
    outer loop
      vertex -49 -23 -10
      vertex -39.445 -23 -1.94986
      vertex -29 -23 -10
    endloop
  endfacet
  facet normal -0.900969 0 -0.433884
    outer loop
      vertex -37 -27 0
      vertex -37.753 -23 1.56366
      vertex -37 -23 0
    endloop
  endfacet
  facet normal -0.900969 -0 -0.433884
    outer loop
      vertex -37.753 -23 1.56366
      vertex -37 -27 0
      vertex -37.753 -27 1.56366
    endloop
  endfacet
  facet normal -0.222521 0 -0.974928
    outer loop
      vertex -39.445 -27 1.94986
      vertex -37.753 -23 1.56366
      vertex -37.753 -27 1.56366
    endloop
  endfacet
  facet normal -0.222521 0 -0.974928
    outer loop
      vertex -37.753 -23 1.56366
      vertex -39.445 -27 1.94986
      vertex -39.445 -23 1.94986
    endloop
  endfacet
  facet normal 1 -0 0
    outer loop
      vertex -40.8019 -27 0.867767
      vertex -40.8019 -23 -0.867767
      vertex -40.8019 -23 0.867767
    endloop
  endfacet
  facet normal 1 0 0
    outer loop
      vertex -40.8019 -23 -0.867767
      vertex -40.8019 -27 0.867767
      vertex -40.8019 -27 -0.867767
    endloop
  endfacet
  facet normal 0.62349 0 0.781831
    outer loop
      vertex -40.8019 -23 -0.867767
      vertex -39.445 -27 -1.94986
      vertex -39.445 -23 -1.94986
    endloop
  endfacet
  facet normal 0.62349 0 0.781831
    outer loop
      vertex -39.445 -27 -1.94986
      vertex -40.8019 -23 -0.867767
      vertex -40.8019 -27 -0.867767
    endloop
  endfacet
  facet normal 0.62349 0 -0.781831
    outer loop
      vertex -40.8019 -27 0.867767
      vertex -39.445 -23 1.94986
      vertex -39.445 -27 1.94986
    endloop
  endfacet
  facet normal 0.62349 0 -0.781831
    outer loop
      vertex -39.445 -23 1.94986
      vertex -40.8019 -27 0.867767
      vertex -40.8019 -23 0.867767
    endloop
  endfacet
  facet normal -0.222521 0 0.974928
    outer loop
      vertex -39.445 -23 -1.94986
      vertex -37.753 -27 -1.56366
      vertex -37.753 -23 -1.56366
    endloop
  endfacet
  facet normal -0.222521 0 0.974928
    outer loop
      vertex -37.753 -27 -1.56366
      vertex -39.445 -23 -1.94986
      vertex -39.445 -27 -1.94986
    endloop
  endfacet
  facet normal -0.900969 0 0.433884
    outer loop
      vertex -37.753 -27 -1.56366
      vertex -37 -23 0
      vertex -37.753 -23 -1.56366
    endloop
  endfacet
  facet normal -0.900969 0 0.433884
    outer loop
      vertex -37 -23 0
      vertex -37.753 -27 -1.56366
      vertex -37 -27 0
    endloop
  endfacet
  facet normal -0.900969 0 -0.433884
    outer loop
      vertex 41 -27 0
      vertex 40.247 -23 1.56366
      vertex 41 -23 0
    endloop
  endfacet
  facet normal -0.900969 -0 -0.433884
    outer loop
      vertex 40.247 -23 1.56366
      vertex 41 -27 0
      vertex 40.247 -27 1.56366
    endloop
  endfacet
  facet normal -0.222521 0 -0.974928
    outer loop
      vertex 38.555 -27 1.94986
      vertex 40.247 -23 1.56366
      vertex 40.247 -27 1.56366
    endloop
  endfacet
  facet normal -0.222521 0 -0.974928
    outer loop
      vertex 40.247 -23 1.56366
      vertex 38.555 -27 1.94986
      vertex 38.555 -23 1.94986
    endloop
  endfacet
  facet normal 0.62349 0 0.781831
    outer loop
      vertex 37.1981 -23 -0.867767
      vertex 38.555 -27 -1.94986
      vertex 38.555 -23 -1.94986
    endloop
  endfacet
  facet normal 0.62349 0 0.781831
    outer loop
      vertex 38.555 -27 -1.94986
      vertex 37.1981 -23 -0.867767
      vertex 37.1981 -27 -0.867767
    endloop
  endfacet
  facet normal 0.62349 0 -0.781831
    outer loop
      vertex 37.1981 -27 0.867767
      vertex 38.555 -23 1.94986
      vertex 38.555 -27 1.94986
    endloop
  endfacet
  facet normal 0.62349 0 -0.781831
    outer loop
      vertex 38.555 -23 1.94986
      vertex 37.1981 -27 0.867767
      vertex 37.1981 -23 0.867767
    endloop
  endfacet
  facet normal 1 -0 0
    outer loop
      vertex 37.1981 -27 0.867767
      vertex 37.1981 -23 -0.867767
      vertex 37.1981 -23 0.867767
    endloop
  endfacet
  facet normal 1 0 0
    outer loop
      vertex 37.1981 -23 -0.867767
      vertex 37.1981 -27 0.867767
      vertex 37.1981 -27 -0.867767
    endloop
  endfacet
  facet normal -0.222521 0 0.974928
    outer loop
      vertex 38.555 -23 -1.94986
      vertex 40.247 -27 -1.56366
      vertex 40.247 -23 -1.56366
    endloop
  endfacet
  facet normal -0.222521 0 0.974928
    outer loop
      vertex 40.247 -27 -1.56366
      vertex 38.555 -23 -1.94986
      vertex 38.555 -27 -1.94986
    endloop
  endfacet
  facet normal -0.900969 0 0.433884
    outer loop
      vertex 40.247 -27 -1.56366
      vertex 41 -23 0
      vertex 40.247 -23 -1.56366
    endloop
  endfacet
  facet normal -0.900969 0 0.433884
    outer loop
      vertex 41 -23 0
      vertex 40.247 -27 -1.56366
      vertex 41 -27 0
    endloop
  endfacet
  facet normal -1 0 0
    outer loop
      vertex -29 -23 -10
      vertex -29 -2 10
      vertex -29 -2 -10
    endloop
  endfacet
  facet normal -1 -0 0
    outer loop
      vertex -29 -2 10
      vertex -29 -23 -10
      vertex -29 -23 10
    endloop
  endfacet
  facet normal 1 -0 0
    outer loop
      vertex 29 -23 10
      vertex 29 -2 -10
      vertex 29 -2 10
    endloop
  endfacet
  facet normal 1 0 0
    outer loop
      vertex 29 -2 -10
      vertex 29 -23 10
      vertex 29 -23 -10
    endloop
  endfacet
  facet normal 0 1 -0
    outer loop
      vertex 29 -2 -10
      vertex 28.7898 -2 10
      vertex 29 -2 10
    endloop
  endfacet
  facet normal 0 1 0
    outer loop
      vertex 28.7898 -2 10
      vertex 29 -2 -10
      vertex 28.7898 -2 -10
    endloop
  endfacet
  facet normal 0 1 -0
    outer loop
      vertex -28.7898 -2 -10
      vertex -29 -2 10
      vertex -28.7898 -2 10
    endloop
  endfacet
  facet normal 0 1 0
    outer loop
      vertex -29 -2 10
      vertex -28.7898 -2 -10
      vertex -29 -2 -10
    endloop
  endfacet
endsolid OpenSCAD_Model
